<svg width="41" height="40" viewBox="0 0 41 40" fill="none" xmlns="http://www.w3.org/2000/svg">
<path d="M40.8712 6.28004V21.66C40.8829 23.5222 40.0725 25.2941 38.6577 26.5C37.5973 27.3814 36.266 27.8689 34.8888 27.88C34.5571 27.9098 34.2234 27.9098 33.8917 27.88L14.9473 24.46V3.50004L33.8917 0.140041C35.5939 -0.15448 37.3388 0.321459 38.6577 1.44004C40.0659 2.65104 40.8747 4.41967 40.8712 6.28004V6.28004Z" fill="#6B7CFF"/>
<path d="M10.959 4.19995V23.76L8.96485 23.4L6.9707 23.06L5.97362 22.88C4.86325 22.6981 3.8265 22.206 2.98239 21.46C1.68896 20.2354 0.965782 18.5237 0.988239 16.74V11.22C0.936453 8.22842 3.04217 5.63501 5.97362 5.07995L10.959 4.19995Z" fill="#6B7CFF"/>
<path d="M12.9536 24.12V35C12.9536 37.7614 10.7216 40 7.96822 40C5.21487 40 2.98284 37.7614 2.98284 35V22C2.95233 21.8213 2.95233 21.6387 2.98284 21.46C3.80475 22.1927 4.81213 22.684 5.8943 22.88L6.89138 23.06L8.88553 23.4L12.9536 24.12Z" fill="#6B7CFF"/>
</svg>
